#!OML:ASF I:\Random Stuff\random\construction\7_22_03\Session 2\subj1.ASF
:FULLY-SPECIFIED
:DEGREES
646
root -9.96183 17.728 -5.26072 -402.953 83.5018 -423.16
lowerback 16.9398 -0.545173 -0.679634
upperback 9.11871 -0.285332 -2.73552
thorax 0.219603 0.132559 -2.44438
lowerneck -14.6011 0.845115 0.520502
upperneck 41.577 4.64343 -2.71643
head 18.0507 2.01658 -0.335879
rclavicle -1.74931e-014 -2.38542e-014
rhumerus -24.0111 17.4783 -97.6303
rradius 103.694
rwrist -23.2588
rhand -44.1761 14.9819
rfingers 7.12502
rthumb -16.9907 -14.295
lclavicle -1.74931e-014 -2.38542e-014
lhumerus 23.0115 -33.6169 73.5353
lradius 35.954
lwrist -16.5549
lhand -44.3426 79.4982
lfingers 7.12502
lthumb -17.151 -468.761
rfemur -23.9708 1.0828 22.1248
rtibia 12.7842
rfoot -7.46623 -9.85326
rtoes -16.4111
lfemur -36.4716 1.68199 -11.3137
ltibia 32.5408
lfoot -20.2792 10.9706
ltoes -29.9795
647
root -9.95642 17.7291 -5.19893 -404.528 83.42 -424.685
lowerback 16.8313 -0.789009 -0.796085
upperback 9.29782 -0.597932 -2.79396
thorax 0.456894 -0.0187987 -2.38938
lowerneck -14.6455 1.07395 0.676804
upperneck 41.3984 4.96357 -2.88706
head 17.9796 2.13458 -0.385366
rclavicle -7.95139e-015 -7.95139e-015
rhumerus -24.6535 18.8955 -97.8873
rradius 104.428
rwrist -23.0359
rhand -43.9787 15.2093
rfingers 7.12502
rthumb -16.8007 -14.0838
lclavicle -7.95139e-015 -7.95139e-015
lhumerus 22.6233 -32.3433 73.446
lradius 36.1583
lwrist -17.107
lhand -44.3666 79.5182
lfingers 7.12502
lthumb -17.1741 -468.779
rfemur -23.4716 1.23438 22.4835
rtibia 12.1058
rfoot -7.40508 -10.0509
rtoes -16.2237
lfemur -36.4725 3.69984 -11.4915
ltibia 32.8949
lfoot -20.9351 10.9434
ltoes -31.1646
648
root -9.95646 17.725 -5.14223 -405.91 83.2224 -426.118
lowerback 16.7921 -0.971208 -0.786739
upperback 9.31399 -0.832726 -2.85916
thorax 0.484968 -0.133457 -2.42591
lowerneck -14.604 1.18631 0.817408
upperneck 41.4176 5.06772 -2.85566
head 17.9855 2.19661 -0.379102
rclavicle -2.38542e-014 -1.59028e-014
rhumerus -24.6007 20.161 -97.9236
rradius 104.674
rwrist -22.6998
rhand -43.8026 14.3429
rfingers 7.12502
rthumb -16.6312 -14.9646
lclavicle -2.38542e-014 -1.59028e-014
lhumerus 22.2556 -31.4357 73.1943
lradius 36.2324
lwrist -17.6079
lhand -44.3512 79.6057
lfingers 7.12502
lthumb -17.1592 -468.868
rfemur -23.2292 1.39587 22.931
rtibia 11.6629
rfoot -7.45474 -10.1355
rtoes -15.8557
lfemur -36.65 5.71384 -11.5414
ltibia 33.35
lfoot -21.3129 10.7787
ltoes -31.7075
649
root -9.96323 17.7156 -5.09035 -407.265 83.0325 -427.599
lowerback 16.8568 -1.06015 -0.749066
upperback 9.19925 -0.95774 -2.85082
thorax 0.323023 -0.199398 -2.41736
lowerneck -14.4784 1.13885 0.825305
upperneck 41.5275 4.95991 -2.7352
head 18.0072 2.17204 -0.347438
rclavicle -3.97569e-014 -2.38542e-014
rhumerus -24.0195 20.9266 -97.6819
rradius 104.597
rwrist -22.7983
rhand -43.5565 13.1632
rfingers 7.12502
rthumb -16.3942 -16.164
lclavicle -3.97569e-014 -2.38542e-014
lhumerus 21.9976 -31.0463 72.9075
lradius 36.2216
lwrist -17.6849
lhand -44.4679 80.5733
lfingers 7.12502
lthumb -17.2716 -469.826
rfemur -23.1069 1.66377 23.3371
rtibia 11.2131
rfoot -7.34895 -10.3224
rtoes -15.8372
lfemur -37.0013 7.40149 -11.4656
ltibia 33.9043
lfoot -21.3517 10.8075
ltoes -31.0348
650
root -9.97532 17.7048 -5.04796 -408.614 82.8474 -429.124
lowerback 16.9169 -1.06199 -0.626253
upperback 9.06101 -0.959693 -2.75652
thorax 0.142487 -0.204821 -2.38595
lowerneck -14.3868 0.992534 0.663681
upperneck 41.6268 4.74585 -2.5837
head 18.0226 2.08527 -0.28907
rclavicle -1.27222e-014 -2.8625e-014
rhumerus -22.8506 21.1896 -97.1008
rradius 104.059
rwrist -23.3177
rhand -43.238 12.4874
rfingers 7.12502
rthumb -16.0876 -16.8648
lclavicle -1.27222e-014 -2.8625e-014
lhumerus 21.9542 -31.17 72.6156
lradius 36.2241
lwrist -17.2913
lhand -44.5922 80.9496
lfingers 7.12502
lthumb -17.3912 -470.192
rfemur -22.9671 1.99197 23.6983
rtibia 10.5522
rfoot -7.01663 -10.5889
rtoes -16.2804
lfemur -37.5682 9.04163 -11.3738
ltibia 34.5144
lfoot -20.6407 10.6845
ltoes -29.867
651
root -9.98869 17.7031 -5.02116 -409.466 82.6792 -430.128
lowerback 16.9321 -1.00775 -0.456948
upperback 8.93705 -0.879653 -2.63625
thorax 0.00332896 -0.168492 -2.36741
lowerneck -14.2972 0.833574 0.551288
upperneck 41.7142 4.53147 -2.51329
head 18.0377 1.99694 -0.276541
rclavicle -1.90833e-014 -6.36111e-015
rhumerus -21.0417 21.1442 -96.2401
rradius 102.789
rwrist -23.8379
rhand -42.9188 12.7148
rfingers 7.12502
rthumb -15.7801 -16.6619
lclavicle -1.90833e-014 -6.36111e-015
lhumerus 21.9917 -31.4298 72.3962
lradius 36.2293
lwrist -17.1062
lhand -44.1852 78.4709
lfingers 7.12502
lthumb -16.9995 -467.747
rfemur -22.6885 2.05319 24.0582
rtibia 9.63279
rfoot -6.64517 -10.4889
rtoes -16.4106
lfemur -38.1268 10.1041 -11.062
ltibia 35.1174
lfoot -18.8239 10.4504
ltoes -30.3828
652
root -9.9996 17.7089 -5.01248 -409.606 82.5354 -430.319
lowerback 16.9949 -0.933766 -0.215825
upperback 8.83437 -0.761029 -2.5541
thorax -0.137221 -0.108644 -2.43654
lowerneck -14.1821 0.668792 0.517246
upperneck 41.83 4.32539 -2.52234
head 18.0694 1.91544 -0.313328
rclavicle 6.36111e-015 1.27222e-014
rhumerus -18.4857 20.8849 -95.1814
rradius 100.07
rwrist -24.1948
rhand -42.6154 12.2168
rfingers 7.12502
rthumb -15.4879 -17.1829
lclavicle 6.36111e-015 1.27222e-014
lhumerus 21.9775 -31.7431 72.2376
lradius 36.2897
lwrist -17.2079
lhand -44.0218 79.9886
lfingers 7.12502
lthumb -16.8421 -469.278
rfemur -22.1834 2.13101 24.2497
rtibia 8.44418
rfoot -6.13895 -10.2898
rtoes -16.511
lfemur -38.4173 9.97119 -10.2569
ltibia 35.6439
lfoot -16.4306 8.16168
ltoes -27.403
653
root -10.0081 17.7147 -5.01646 -409.076 82.3827 -429.723
lowerback 17.1785 -0.851588 0.0631324
upperback 8.74068 -0.624437 -2.52104
thorax -0.329851 -0.0368618 -2.58266
lowerneck -14.1163 0.470881 0.341018
upperneck 42.0328 4.06585 -2.37929
head 18.156 1.81017 -0.262265
rclavicle -3.97569e-014 -2.38542e-014
rhumerus -15.3161 20.5182 -94.1438
rradius 96.4447
rwrist -24.4408
rhand -42.9835 12.5915
rfingers 7.12502
rthumb -15.8424 -16.7803
lclavicle -3.97569e-014 -2.38542e-014
lhumerus 21.9266 -32.2971 72.0371
lradius 36.45
lwrist -16.8918
lhand -43.9259 80.5644
lfingers 7.12502
lthumb -16.7499 -469.862
rfemur -21.4922 2.25682 24.32
rtibia 7.10052
rfoot -5.48687 -10.0686
rtoes -16.8212
lfemur -38.4643 9.17641 -9.17032
ltibia 36.0004
lfoot -13.7415 5.91375
ltoes -26.9417
654
root -10.0143 17.7215 -5.02888 -407.27 82.2013 -427.719
lowerback 17.5081 -0.764349 0.165937
upperback 8.67811 -0.502083 -2.49706
thorax -0.562306 0.0240978 -2.6375
lowerneck -14.0842 0.335925 0.0994336
upperneck 42.2185 3.94031 -2.28602
head 18.248 1.73848 -0.197178
rclavicle -9.54166e-015 -1.11319e-014
rhumerus -11.7307 20.2501 -93.289
rradius 92.2771
rwrist -24.5103
rhand -43.7118 13.2928
rfingers 7.12502
rthumb -16.5437 -16.0219
lclavicle -9.54166e-015 -1.11319e-014
lhumerus 21.8084 -32.6605 71.918
lradius 36.644
lwrist -16.4316
lhand -43.9376 80.5963
lfingers 7.12502
lthumb -16.7611 -469.893
rfemur -20.7461 2.52722 24.2761
rtibia 5.93642
rfoot -4.88482 -9.85282
rtoes -16.8886
lfemur -38.23 8.04002 -7.99662
ltibia 36.1085
lfoot -12.625 3.96776
ltoes -28.5489
655
root -10.0184 17.7298 -5.04808 -403.133 81.9704 -423.37
lowerback 17.8223 -0.621218 -0.0329788
upperback 8.6257 -0.352774 -2.49822
thorax -0.771795 0.0904354 -2.55375
lowerneck -13.9648 0.355109 0.0327519
upperneck 42.2552 4.12489 -2.55202
head 18.2534 1.76924 -0.275971
rclavicle 1.74931e-014 -6.36111e-015
rhumerus -7.92657 20.0644 -92.702
rradius 88.0657
rwrist -24.4622
rhand -44.2108 14.0683
rfingers 7.12502
rthumb -17.0241 -15.2057
lclavicle 1.74931e-014 -6.36111e-015
lhumerus 21.5454 -32.5199 72.0262
lradius 36.823
lwrist -16.4327
lhand -43.7648 80.1941
lfingers 7.12502
lthumb -16.5948 -469.505
rfemur -20.2393 3.07133 24.0283
rtibia 5.28246
rfoot -4.50225 -9.64773
rtoes -16.9255
lfemur -37.76 6.59545 -6.81984
ltibia 35.9493
lfoot -11.8266 2.53626
ltoes -29.9312
